<?xml version="1.0" encoding="UTF-8" standalone="no"?>
<svg
   xmlns:dc="http://purl.org/dc/elements/1.1/"
   xmlns:cc="http://creativecommons.org/ns#"
   xmlns:rdf="http://www.w3.org/1999/02/22-rdf-syntax-ns#"
   xmlns:svg="http://www.w3.org/2000/svg"
   xmlns="http://www.w3.org/2000/svg"
   version="1.1"
   id="svg2"
   viewBox="0 0 426.25001 426.25001"
   height="120.29723mm"
   width="120.29723mm">
  <defs
     id="defs4">
    <clipPath
       id="clipPath4471"
       clipPathUnits="userSpaceOnUse">
      <path
         style="opacity:1;fill:none;fill-opacity:1;fill-rule:nonzero;stroke:#cc0000;stroke-width:1.99999976;stroke-linecap:round;stroke-miterlimit:4;stroke-dasharray:1.99999976, 7.99999905;stroke-dashoffset:0;stroke-opacity:1"
         d="m 458.10413,373.46952 c -5.14208,-8.55154 -4.20975,-17.37918 -2.0203,-26.26397 -1.1041,-8.102 -0.005,-15.44443 8.58629,-20.20304 2.46954,-6.82879 5.83656,-12.81619 13.63705,-14.64721 4.58324,-13.92975 12.60522,-18.68953 22.22336,-19.1929 3.38517,-10.62431 9.58256,-14.61982 17.67767,-14.14214 5.92039,-10.33533 13.173,-13.91237 22.22336,-12.6269 11.01665,-7.0242 15.68649,-3.52186 21.21319,-1.51523 8.0167,1.37383 7.84603,2.2921 11.11168,9.59645 2.94372,6.8549 4.02924,13.67948 -2.02031,20.20305 0.59923,10.24713 -0.56748,19.83834 -11.61675,25.75889 -1.85474,8.1527 -0.88731,17.95111 -18.18274,24.24365 -3.69436,7.70278 -11.00348,13.3866 -16.83575,14.3796 -4.72296,6.15352 -9.07207,9.96866 -14.47897,11.00049 -6.04354,9.29498 -12.48415,10.92624 -22.22336,9.47017 -7.40778,3.52508 -14.81557,2.16581 -22.22335,-1.01015 z"
         id="path4473" />
    </clipPath>
  </defs>
  <metadata
     id="metadata7">
    <rdf:RDF>
      <cc:Work
         rdf:about="">
        <dc:format>image/svg+xml</dc:format>
        <dc:type
           rdf:resource="http://purl.org/dc/dcmitype/StillImage" />
        <dc:title></dc:title>
      </cc:Work>
    </rdf:RDF>
  </metadata>
  <g
     transform="translate(-101.16069,-310.66577)"
     id="layer1" />
  <g
     id="layer2">
    <g
       transform="matrix(2.7567579,0,0,2.7567579,-1207.1174,-666.22919)"
       id="g4487">
      <g
         id="g4439"
         clip-path="url(#clipPath4471)">
        <path
           id="use4318"
           d="m 554.91428,283.40951 0,9.3225 c 38.42406,-10.87723 2.2139,-49.92058 -8.63886,-9.3225 z"
           style="opacity:1;fill:#ffffff;fill-opacity:1;fill-rule:nonzero;stroke:#000000;stroke-width:1.99999988;stroke-linecap:round;stroke-miterlimit:4;stroke-dasharray:none;stroke-dashoffset:0;stroke-opacity:1" />
        <path
           id="use4320"
           d="m 536.73153,285.42981 0,9.3225 c 38.42406,-10.87723 2.2139,-49.92058 -8.63886,-9.3225 z"
           style="opacity:1;fill:#ffffff;fill-opacity:1;fill-rule:nonzero;stroke:#000000;stroke-width:1.99999988;stroke-linecap:round;stroke-miterlimit:4;stroke-dasharray:none;stroke-dashoffset:0;stroke-opacity:1" />
        <path
           id="use4322"
           d="m 552.89397,300.07703 0,9.3225 c 38.42406,-10.87723 2.2139,-49.92058 -8.63886,-9.3225 z"
           style="opacity:1;fill:#ffffff;fill-opacity:1;fill-rule:nonzero;stroke:#000000;stroke-width:1.99999988;stroke-linecap:round;stroke-miterlimit:4;stroke-dasharray:none;stroke-dashoffset:0;stroke-opacity:1" />
        <path
           id="use4324"
           d="m 540.26707,298.05672 0,9.3225 c 38.42406,-10.87723 2.2139,-49.92058 -8.63886,-9.3225 z"
           style="opacity:1;fill:#ffffff;fill-opacity:1;fill-rule:nonzero;stroke:#000000;stroke-width:1.99999988;stroke-linecap:round;stroke-miterlimit:4;stroke-dasharray:none;stroke-dashoffset:0;stroke-opacity:1" />
        <path
           id="use4326"
           d="m 523.59955,282.39936 0,9.3225 c 38.42406,-10.87724 2.2139,-49.92059 -8.63886,-9.3225 z"
           style="opacity:1;fill:#ffffff;fill-opacity:1;fill-rule:nonzero;stroke:#000000;stroke-width:1.99999988;stroke-linecap:round;stroke-miterlimit:4;stroke-dasharray:none;stroke-dashoffset:0;stroke-opacity:1" />
        <path
           id="use4328"
           d="m 522.08432,300.07703 0,9.3225 c 38.42406,-10.87723 2.2139,-49.92058 -8.63886,-9.3225 z"
           style="opacity:1;fill:#ffffff;fill-opacity:1;fill-rule:nonzero;stroke:#000000;stroke-width:1.99999988;stroke-linecap:round;stroke-miterlimit:4;stroke-dasharray:none;stroke-dashoffset:0;stroke-opacity:1" />
        <path
           id="use4330"
           d="m 555.92443,312.70393 0,9.3225 c 38.42406,-10.87723 2.2139,-49.92058 -8.63886,-9.3225 z"
           style="opacity:1;fill:#ffffff;fill-opacity:1;fill-rule:nonzero;stroke:#000000;stroke-width:1.99999988;stroke-linecap:round;stroke-miterlimit:4;stroke-dasharray:none;stroke-dashoffset:0;stroke-opacity:1" />
        <path
           id="use4332"
           d="m 538.24676,314.72424 0,9.3225 c 38.42406,-10.87723 2.2139,-49.92058 -8.63886,-9.3225 z"
           style="opacity:1;fill:#ffffff;fill-opacity:1;fill-rule:nonzero;stroke:#000000;stroke-width:1.99999988;stroke-linecap:round;stroke-miterlimit:4;stroke-dasharray:none;stroke-dashoffset:0;stroke-opacity:1" />
        <path
           id="use4334"
           d="m 540.26707,328.3613 0,9.3225 c 38.42406,-10.87723 2.2139,-49.92058 -8.63886,-9.3225 z"
           style="opacity:1;fill:#ffffff;fill-opacity:1;fill-rule:nonzero;stroke:#000000;stroke-width:1.99999988;stroke-linecap:round;stroke-miterlimit:4;stroke-dasharray:none;stroke-dashoffset:0;stroke-opacity:1" />
        <path
           id="use4336"
           d="m 524.6097,313.71408 0,9.3225 c 38.42406,-10.87723 2.2139,-49.92058 -8.63886,-9.3225 z"
           style="opacity:1;fill:#ffffff;fill-opacity:1;fill-rule:nonzero;stroke:#000000;stroke-width:1.99999988;stroke-linecap:round;stroke-miterlimit:4;stroke-dasharray:none;stroke-dashoffset:0;stroke-opacity:1" />
        <path
           id="use4338"
           d="m 507.94219,298.05672 0,9.3225 c 38.42406,-10.87723 2.2139,-49.92058 -8.63886,-9.3225 z"
           style="opacity:1;fill:#ffffff;fill-opacity:1;fill-rule:nonzero;stroke:#000000;stroke-width:1.99999988;stroke-linecap:round;stroke-miterlimit:4;stroke-dasharray:none;stroke-dashoffset:0;stroke-opacity:1" />
        <path
           id="use4340"
           d="m 506.42696,315.73439 0,9.3225 c 38.42406,-10.87723 2.2139,-49.92058 -8.63886,-9.3225 z"
           style="opacity:1;fill:#ffffff;fill-opacity:1;fill-rule:nonzero;stroke:#000000;stroke-width:1.99999988;stroke-linecap:round;stroke-miterlimit:4;stroke-dasharray:none;stroke-dashoffset:0;stroke-opacity:1" />
        <path
           id="use4342"
           d="m 522.5894,330.3816 0,9.3225 c 38.42406,-10.87723 2.2139,-49.92058 -8.63886,-9.3225 z"
           style="opacity:1;fill:#ffffff;fill-opacity:1;fill-rule:nonzero;stroke:#000000;stroke-width:1.99999988;stroke-linecap:round;stroke-miterlimit:4;stroke-dasharray:none;stroke-dashoffset:0;stroke-opacity:1" />
        <path
           id="use4344"
           d="m 525.61986,343.00851 0,9.3225 c 38.42406,-10.87723 2.2139,-49.92058 -8.63886,-9.3225 z"
           style="opacity:1;fill:#ffffff;fill-opacity:1;fill-rule:nonzero;stroke:#000000;stroke-width:1.99999988;stroke-linecap:round;stroke-miterlimit:4;stroke-dasharray:none;stroke-dashoffset:0;stroke-opacity:1" />
        <path
           id="use4346"
           d="m 509.96249,328.36129 0,9.3225 c 38.42406,-10.87723 2.2139,-49.92058 -8.63886,-9.3225 z"
           style="opacity:1;fill:#ffffff;fill-opacity:1;fill-rule:nonzero;stroke:#000000;stroke-width:1.99999988;stroke-linecap:round;stroke-miterlimit:4;stroke-dasharray:none;stroke-dashoffset:0;stroke-opacity:1" />
        <path
           id="use4348"
           d="m 493.29498,312.70393 0,9.3225 c 38.42406,-10.87723 2.2139,-49.92058 -8.63886,-9.3225 z"
           style="opacity:1;fill:#ffffff;fill-opacity:1;fill-rule:nonzero;stroke:#000000;stroke-width:1.99999988;stroke-linecap:round;stroke-miterlimit:4;stroke-dasharray:none;stroke-dashoffset:0;stroke-opacity:1" />
        <path
           id="use4350"
           d="m 491.77975,330.3816 0,9.3225 c 38.42406,-10.87723 2.2139,-49.92058 -8.63886,-9.3225 z"
           style="opacity:1;fill:#ffffff;fill-opacity:1;fill-rule:nonzero;stroke:#000000;stroke-width:1.99999988;stroke-linecap:round;stroke-miterlimit:4;stroke-dasharray:none;stroke-dashoffset:0;stroke-opacity:1" />
        <path
           id="use4352"
           d="m 507.94219,345.02881 0,9.3225 c 38.42406,-10.87723 2.2139,-49.92058 -8.63886,-9.3225 z"
           style="opacity:1;fill:#ffffff;fill-opacity:1;fill-rule:nonzero;stroke:#000000;stroke-width:1.99999988;stroke-linecap:round;stroke-miterlimit:4;stroke-dasharray:none;stroke-dashoffset:0;stroke-opacity:1" />
        <path
           id="use4354"
           d="m 524.10463,359.67602 0,9.3225 c 38.42406,-10.87723 2.2139,-49.92058 -8.63886,-9.3225 z"
           style="opacity:1;fill:#ffffff;fill-opacity:1;fill-rule:nonzero;stroke:#000000;stroke-width:1.99999988;stroke-linecap:round;stroke-miterlimit:4;stroke-dasharray:none;stroke-dashoffset:0;stroke-opacity:1" />
        <path
           id="use4356"
           d="m 505.92188,361.19125 0,9.3225 c 38.42406,-10.87723 2.2139,-49.92058 -8.63886,-9.3225 z"
           style="opacity:1;fill:#ffffff;fill-opacity:1;fill-rule:nonzero;stroke:#000000;stroke-width:1.99999988;stroke-linecap:round;stroke-miterlimit:4;stroke-dasharray:none;stroke-dashoffset:0;stroke-opacity:1" />
        <path
           id="use4358"
           d="m 490.26452,346.54404 0,9.3225 c 38.42406,-10.87723 2.2139,-49.92058 -8.63886,-9.3225 z"
           style="opacity:1;fill:#ffffff;fill-opacity:1;fill-rule:nonzero;stroke:#000000;stroke-width:1.99999988;stroke-linecap:round;stroke-miterlimit:4;stroke-dasharray:none;stroke-dashoffset:0;stroke-opacity:1" />
        <path
           id="use4360"
           d="m 476.62746,312.70393 0,9.3225 c 38.42406,-10.87723 2.2139,-49.92058 -8.63886,-9.3225 z"
           style="opacity:1;fill:#ffffff;fill-opacity:1;fill-rule:nonzero;stroke:#000000;stroke-width:1.99999988;stroke-linecap:round;stroke-miterlimit:4;stroke-dasharray:none;stroke-dashoffset:0;stroke-opacity:1" />
        <path
           id="use4362"
           d="m 473.59701,330.88667 0,9.3225 c 38.42406,-10.87723 2.2139,-49.92058 -8.63886,-9.3225 z"
           style="opacity:1;fill:#ffffff;fill-opacity:1;fill-rule:nonzero;stroke:#000000;stroke-width:1.99999988;stroke-linecap:round;stroke-miterlimit:4;stroke-dasharray:none;stroke-dashoffset:0;stroke-opacity:1" />
        <path
           id="use4364"
           d="m 472.08178,348.56434 0,9.3225 c 38.42406,-10.87723 2.2139,-49.92058 -8.63886,-9.3225 z"
           style="opacity:1;fill:#ffffff;fill-opacity:1;fill-rule:nonzero;stroke:#000000;stroke-width:1.99999988;stroke-linecap:round;stroke-miterlimit:4;stroke-dasharray:none;stroke-dashoffset:0;stroke-opacity:1" />
        <path
           id="use4366"
           d="m 488.24422,363.21155 0,9.3225 c 38.42406,-10.87723 2.2139,-49.92058 -8.63886,-9.3225 z"
           style="opacity:1;fill:#ffffff;fill-opacity:1;fill-rule:nonzero;stroke:#000000;stroke-width:1.99999988;stroke-linecap:round;stroke-miterlimit:4;stroke-dasharray:none;stroke-dashoffset:0;stroke-opacity:1" />
        <path
           id="use4368"
           d="m 491.27467,375.83846 0,9.3225 c 38.42406,-10.87723 2.2139,-49.92058 -8.63886,-9.3225 z"
           style="opacity:1;fill:#ffffff;fill-opacity:1;fill-rule:nonzero;stroke:#000000;stroke-width:1.99999988;stroke-linecap:round;stroke-miterlimit:4;stroke-dasharray:none;stroke-dashoffset:0;stroke-opacity:1" />
        <path
           id="use4370"
           d="m 475.61731,361.19125 0,9.3225 c 38.42406,-10.87723 2.2139,-49.92058 -8.63886,-9.3225 z"
           style="opacity:1;fill:#ffffff;fill-opacity:1;fill-rule:nonzero;stroke:#000000;stroke-width:1.99999988;stroke-linecap:round;stroke-miterlimit:4;stroke-dasharray:none;stroke-dashoffset:0;stroke-opacity:1" />
        <path
           id="use4372"
           d="m 458.9498,345.53388 0,9.3225 c 38.42406,-10.87723 2.2139,-49.92058 -8.63886,-9.3225 z"
           style="opacity:1;fill:#ffffff;fill-opacity:1;fill-rule:nonzero;stroke:#000000;stroke-width:1.99999988;stroke-linecap:round;stroke-miterlimit:4;stroke-dasharray:none;stroke-dashoffset:0;stroke-opacity:1" />
        <path
           id="use4374"
           d="m 457.43457,363.21155 0,9.3225 c 38.42406,-10.87723 2.2139,-49.92058 -8.63886,-9.3225 z"
           style="opacity:1;fill:#ffffff;fill-opacity:1;fill-rule:nonzero;stroke:#000000;stroke-width:1.99999988;stroke-linecap:round;stroke-miterlimit:4;stroke-dasharray:none;stroke-dashoffset:0;stroke-opacity:1" />
        <path
           id="use4376"
           d="m 473.59701,377.85876 0,9.3225 c 38.42406,-10.87723 2.2139,-49.92058 -8.63886,-9.3225 z"
           style="opacity:1;fill:#ffffff;fill-opacity:1;fill-rule:nonzero;stroke:#000000;stroke-width:1.99999988;stroke-linecap:round;stroke-miterlimit:4;stroke-dasharray:none;stroke-dashoffset:0;stroke-opacity:1" />
      </g>
      <path
         style="opacity:1;fill:none;fill-opacity:1;fill-rule:nonzero;stroke:#000000;stroke-width:2;stroke-linecap:round;stroke-miterlimit:4;stroke-dasharray:none;stroke-dashoffset:0;stroke-opacity:1"
         d="m 458.10413,373.46952 c -5.14208,-8.55154 -4.20975,-17.37918 -2.0203,-26.26397 -1.1041,-8.102 -0.005,-15.44443 8.58629,-20.20304 2.46954,-6.82879 5.83656,-12.81619 13.63705,-14.64721 4.58324,-13.92975 12.60522,-18.68953 22.22336,-19.1929 3.38517,-10.62431 9.58256,-14.61982 17.67767,-14.14214 5.92039,-10.33533 13.173,-13.91237 22.22336,-12.6269 11.01665,-7.0242 15.68649,-3.52186 21.21319,-1.51523 7.23939,2.66935 6.80962,3.32851 11.11168,9.59645 2.94372,6.8549 4.02924,13.67948 -2.02031,20.20305 0.59923,10.24713 -0.56748,19.83834 -11.61675,25.75889 -1.85474,8.1527 -5.55117,17.1738 -18.18274,24.24365 -3.69436,7.70278 -11.00348,13.3866 -16.83575,14.3796 -4.72296,6.15352 -9.07207,9.96866 -14.47897,11.00049 -6.04354,9.29498 -12.48415,10.92624 -22.22336,9.47017 -7.40778,3.52508 -14.81557,2.16581 -22.22335,-1.01015 z"
         id="path4314" />
      <path
         style="opacity:1;fill:none;fill-opacity:1;fill-rule:nonzero;stroke:#000000;stroke-width:1.99999976;stroke-linecap:round;stroke-linejoin:round;stroke-miterlimit:4;stroke-dasharray:none;stroke-dashoffset:0;stroke-opacity:1"
         d="m 457.67852,373.39285 -1.60714,1.51785 6.7857,5 1.42858,-2.05358"
         id="path4475" />
    </g>
  </g>
</svg>
