<?xml version="1.0" encoding="UTF-8" standalone="no"?>
<svg
   xmlns:dc="http://purl.org/dc/elements/1.1/"
   xmlns:cc="http://creativecommons.org/ns#"
   xmlns:rdf="http://www.w3.org/1999/02/22-rdf-syntax-ns#"
   xmlns="http://www.w3.org/2000/svg"
   xml:space="preserve"
   enable-background="new 0 0 100 100"
   viewBox="0 0 100 100"
   height="100px"
   width="100px"
   y="0px"
   x="0px"
   id="Layer_1"
   version="1.1"><metadata
     id="metadata11"><rdf:RDF><cc:Work
         rdf:about=""><dc:format>image/svg+xml</dc:format><dc:type
           rdf:resource="http://purl.org/dc/dcmitype/StillImage" /><dc:title></dc:title></cc:Work></rdf:RDF></metadata><defs
     id="defs9" /><g
     style="fill:#000000;fill-opacity:1"
     id="g3"><path
       style="fill:#000000;fill-opacity:1"
       id="path5"
       d="M50,12.5c-20.712,0-37.5,16.793-37.5,37.502C12.5,70.712,29.288,87.5,50,87.5   c20.712,0,37.5-16.788,37.5-37.498C87.5,29.293,70.712,12.5,50,12.5z M53.826,70.86c0,0.72-0.584,1.304-1.304,1.304h-5.044   c-0.72,0-1.304-0.583-1.304-1.304V46.642c0-0.72,0.584-1.304,1.304-1.304h5.044c0.72,0,1.304,0.583,1.304,1.304V70.86z    M49.969,39.933c-2.47,0-4.518-2.048-4.518-4.579c0-2.53,2.048-4.518,4.518-4.518c2.531,0,4.579,1.987,4.579,4.518   C54.549,37.885,52.5,39.933,49.969,39.933z"
       fill="#231F20" /></g></svg>