<?xml version="1.0" encoding="UTF-8" standalone="no"?>
<svg
    xmlns:dc="http://purl.org/dc/elements/1.1/"
    xmlns:cc="http://creativecommons.org/ns#"
    xmlns:rdf="http://www.w3.org/1999/02/22-rdf-syntax-ns#"
    xmlns="http://www.w3.org/2000/svg"
    version="1.1"
    id="svg2"
    viewBox="0 0 99.999994 100"
    height="100"
    width="100">
  <defs
      id="defs4"/>
  <metadata
      id="metadata7">
    <rdf:RDF>
      <cc:Work
          rdf:about="">
        <dc:format>image/svg+xml</dc:format>
        <dc:type
            rdf:resource="http://purl.org/dc/dcmitype/StillImage"/>
        <dc:title></dc:title>
      </cc:Work>
    </rdf:RDF>
  </metadata>
  <g
      transform="matrix(1.1929968,0,0,1.1929968,-666.02966,-792.78273)"
      id="layer1">
    <path
        style="fill:#000000"
        d="m 620.71813,734.63129 c 0,0.69453 0.5623,1.25683 1.25683,1.25683 l 4.16576,0 c 0.69453,0 1.25683,-0.5623 1.25683,-1.25683 l 0,-3.0843 c 0,-0.69453 -0.5623,-1.25683 -1.25683,-1.25683 l -4.16576,0 c -0.69453,0 -1.25683,0.5623 -1.25683,1.25683 l 0,3.0843 z m -21.60408,0 c 0,0.69453 0.5623,1.25683 1.25683,1.25683 l 4.55687,0 c 0.69452,0 1.25683,-0.5623 1.25683,-1.25683 l 0,-12.59611 c 0,-0.69453 -0.56231,-1.25683 -1.25683,-1.25683 l -4.55687,0 c -0.69453,0 -1.25683,0.5623 -1.25683,1.25683 l 0,12.59611 z m 14.14105,-15.22808 -2.96599,0 c -0.69453,0 -1.25683,0.5623 -1.25683,1.25683 l 0,1.71057 c 0,0.69453 0.5623,1.25683 1.25683,1.25683 l 2.96599,0 0,11.00524 c 0,0.69453 0.5623,1.25683 1.25683,1.25683 l 3.08431,0 c 0.69453,0 1.25683,-0.5623 1.25683,-1.25683 l 0,-19.66664 c 0,-0.69453 -0.5623,-1.25683 -1.25683,-1.25683 l -3.08431,0 c -0.69453,0 -1.25683,0.5623 -1.25683,1.25683 l 0,4.43717 z m 8.44567,-15.51479 0,-1.59226 c 0,-0.69453 -0.56231,-1.25683 -1.25683,-1.25683 l -0.33404,0 c -0.69453,0 -1.25683,0.5623 -1.25683,1.25683 l 0,1.59226 -2.96601,0 c -0.69452,0 -1.25682,0.5623 -1.25682,1.25683 l 0,4.45944 c 0,0.69452 0.5623,1.25683 1.25682,1.25683 l 4.55688,0 c 0.69452,0 1.25683,-0.56231 1.25683,-1.25683 l 0,-5.71627 z m -11.39079,6.67803 0.21574,0 c 0.69452,0 1.25683,-0.5623 1.25683,-1.25683 l 0,-3.08431 c 0,-0.69453 -0.56231,-1.25683 -1.25683,-1.25683 l -3.18314,0 c -0.69452,0 -1.25682,0.5623 -1.25682,1.25683 l 0,1.59226 -5.8137,0 c -0.69453,0 -1.25683,0.5623 -1.25683,1.25683 l 0,7.30714 c 0,0.69452 0.5623,1.25682 1.25683,1.25682 l 8.78109,0 c 0.69453,0 1.25683,-0.5623 1.25683,-1.25682 l 0,-5.81509 z m 14.23848,4.61533 -1.59087,0 c -0.69452,0 -1.25682,0.5623 -1.25682,1.25683 l 0,5.932 c 0,0.69453 0.5623,1.25683 1.25682,1.25683 l 6.03083,0 c 0.69453,0 1.25683,-0.5623 1.25683,-1.25683 l 0,-18.69932 c 0,-0.69453 -0.5623,-1.25683 -1.25683,-1.25683 l -3.18313,0 c -0.69453,0 -1.25683,0.5623 -1.25683,1.25683 l 0,11.51049 z m -22.58671,-14.35819 c 0,-0.69452 -0.56231,-1.25683 -1.25683,-1.25683 l -3.18313,0 c -0.69453,0 -1.25683,0.56231 -1.25683,1.25683 l 0,3.18313 c 0,0.69453 0.5623,1.25683 1.25683,1.25683 l 3.18313,0 c 0.69452,0 1.25683,-0.5623 1.25683,-1.25683 l 0,-3.18313 z m -3.63409,-4.57497 c 0,0.69453 0.5623,1.25683 1.25683,1.25683 l 4.55688,0 c 0.69452,0 1.25682,-0.5623 1.25682,-1.25683 l 0,-3.18312 c 0,-0.69453 -0.5623,-1.25683 -1.25682,-1.25683 l -1.59088,0 0,-9.82079 0.21574,0 c 0.69453,0 1.25683,-0.5623 1.25683,-1.25683 l 0,-1.70779 c 0,-0.69453 -0.5623,-1.25683 -1.25683,-1.25683 l -6.02943,0 c -0.69453,0 -1.25683,0.5623 -1.25683,1.25683 l 0,1.70918 c 0,0.69453 0.5623,1.25683 1.25683,1.25683 l 1.59086,0 0,4.51789 -1.59086,0 c -0.69453,0 -1.25683,0.5623 -1.25683,1.25683 l 0,0.23661 c 0,0.69453 0.5623,1.25683 1.25683,1.25683 l 1.59086,0 0,6.99119 z m -23.39119,6.16584 c -0.69453,0 -1.25683,0.5623 -1.25683,1.25683 l 0,3.18313 c 0,0.69453 0.5623,1.25683 1.25683,1.25683 l 2.96599,0 0,0.11691 c 0,0.69453 0.56231,1.25683 1.25683,1.25683 l 7.18883,0 0,0.1183 c 0,0.69453 0.56231,1.25683 1.25683,1.25683 l 3.18314,0 c 0.69452,0 1.25682,-0.5623 1.25682,-1.25683 l 0,-3.0843 c 0,-0.69453 -0.5623,-1.25683 -1.25682,-1.25683 l -1.59088,0 0,-1.59226 c 0,-0.69453 -0.5623,-1.25683 -1.25683,-1.25683 l -1.71195,0 c -0.69453,0 -1.25683,0.5623 -1.25683,1.25683 l 0,1.59226 -5.59518,0 0,-1.59226 c 0,-0.69453 -0.5623,-1.25683 -1.25683,-1.25683 l -3.18312,0 z m 39.2999,-19.44397 9.32949,0 0,9.23065 -9.32949,0 z m 16.69506,-2.554 c 0,-2.65701 -2.15318,-4.81019 -4.81019,-4.81019 l -14.43891,0 c -2.65702,0 -4.81158,2.15318 -4.81158,4.81019 l 0,14.43891 c 0,2.65702 2.15317,4.81018 4.81158,4.81018 l 14.43891,0 c 2.65701,0 4.81019,-2.15316 4.81019,-4.81018 l 0,-14.43891 z m -4.32026,14.35679 c 0,0.31595 -0.2561,0.57066 -0.57204,0.57066 l -14.3735,0 c -0.31595,0 -0.57066,-0.2561 -0.57066,-0.57066 l 0,-14.37349 c 0,-0.31595 0.2561,-0.57065 0.57066,-0.57065 l 14.3735,0 c 0.31594,0 0.57204,0.2561 0.57204,0.57065 l 0,14.37349 z m -49.78876,25.80879 9.23066,0 0,9.32949 -9.23066,0 z m 16.69367,-2.55538 c 0,-2.65563 -2.15316,-4.80879 -4.81158,-4.80879 l -14.43751,0 c -2.65701,0 -4.81019,2.15316 -4.81019,4.80879 l 0,14.4403 c 0,2.65701 2.15318,4.81019 4.81019,4.81019 l 14.43891,0 c 2.65702,0 4.81158,-2.15318 4.81158,-4.81019 l 0,-14.4403 z m -4.32026,14.43334 c 0,0.31456 -0.23382,0.59431 -0.54977,0.59431 l -14.39993,0 c -0.31596,0 -0.56648,-0.27975 -0.56648,-0.59431 l 0,-14.40272 c 0,-0.31456 0.25052,-0.61797 0.56648,-0.61797 l 14.40132,0 c 0.31456,0 0.54977,0.30341 0.54977,0.61797 l 0,14.40272 z m -12.37341,-49.48954 9.23066,0 0,9.23065 -9.23066,0 z m 16.69367,-2.554 c 0,-2.65701 -2.15316,-4.81019 -4.81158,-4.81019 l -14.43751,0 c -2.65701,0 -4.81019,2.15318 -4.81019,4.81019 l 0,14.43891 c 0,2.65702 2.15318,4.81018 4.81019,4.81018 l 14.43891,0 c 2.65702,0 4.81158,-2.15316 4.81158,-4.81018 l 0,-14.43891 z m -4.32026,14.35679 c 0,0.31595 -0.25609,0.57066 -0.57204,0.57066 l -14.3721,0 c -0.31594,0 -0.57204,-0.2561 -0.57204,-0.57066 l 0,-14.37349 c 0,-0.31595 0.2561,-0.57065 0.57204,-0.57065 l 14.37349,0 c 0.31595,0 0.57204,0.2561 0.57204,0.57065 l 0,14.37349 z"
        id="path33"/>
  </g>
</svg>
