<?xml version="1.0" encoding="UTF-8" standalone="no"?>
<!-- Generator: Adobe Illustrator 16.0.0, SVG Export Plug-In . SVG Version: 6.00 Build 0)  -->

<svg
   xmlns:dc="http://purl.org/dc/elements/1.1/"
   xmlns:cc="http://creativecommons.org/ns#"
   xmlns:rdf="http://www.w3.org/1999/02/22-rdf-syntax-ns#"
   xmlns="http://www.w3.org/2000/svg"
   xmlns:sodipodi="http://sodipodi.sourceforge.net/DTD/sodipodi-0.dtd"
   xmlns:inkscape="http://www.inkscape.org/namespaces/inkscape"
   version="1.1"
   id="Layer_1"
   x="0px"
   y="0px"
   width="48px"
   height="48px"
   viewBox="0 0 48 48"
   enable-background="new 0 0 48 48"
   xml:space="preserve"
   inkscape:version="0.91 r"
   sodipodi:docname="Tourism-Icons_qr-code.svg"><metadata
     id="metadata39"><rdf:RDF><cc:Work
         rdf:about=""><dc:format>image/svg+xml</dc:format><dc:type
           rdf:resource="http://purl.org/dc/dcmitype/StillImage" /><dc:title /></cc:Work></rdf:RDF></metadata><defs
     id="defs37" /><sodipodi:namedview
     pagecolor="#2a2a2a"
     bordercolor="#666666"
     borderopacity="1"
     objecttolerance="10"
     gridtolerance="10"
     guidetolerance="10"
     inkscape:pageopacity="0"
     inkscape:pageshadow="2"
     inkscape:window-width="1680"
     inkscape:window-height="995"
     id="namedview35"
     showgrid="false"
     inkscape:snap-page="true"
     inkscape:zoom="6.9532167"
     inkscape:cx="25.666554"
     inkscape:cy="17.666712"
     inkscape:window-x="-2"
     inkscape:window-y="-3"
     inkscape:window-maximized="1"
     inkscape:current-layer="Layer_1" /><rect
     style="opacity:1;fill:#ffffff;fill-opacity:1;fill-rule:nonzero;stroke:none;stroke-width:0.5;stroke-linecap:round;stroke-linejoin:round;stroke-miterlimit:4;stroke-dasharray:none;stroke-dashoffset:0;stroke-opacity:1"
     id="rect4167"
     width="37.932716"
     height="37.932716"
     x="5.0336413"
     y="5.0336413"
     ry="3.9781134" /><g
     id="g3"
     transform="matrix(0.79026494,0,0,0.79026494,5.0336415,4.796562)"><path
       d="m 19.116,5.731 c 0,-1.909 -1.547,-3.456 -3.457,-3.456 l -10.373,0 C 3.377,2.275 1.83,3.822 1.83,5.731 l 0,10.374 c 0,1.909 1.547,3.456 3.456,3.456 l 10.374,0 c 1.909,0 3.457,-1.547 3.457,-3.456 l 0,-10.374 z m -3.104,10.315 c 0,0.227 -0.184,0.41 -0.411,0.41 l -10.326,0 c -0.227,0 -0.411,-0.184 -0.411,-0.41 l 0,-10.327 c 0,-0.227 0.184,-0.41 0.411,-0.41 l 10.327,0 c 0.227,0 0.411,0.184 0.411,0.41 l 0,10.327 z"
       id="path5"
       inkscape:connector-curvature="0" /><rect
       x="7.1220002"
       y="7.566"
       width="6.632"
       height="6.632"
       id="rect7" /><path
       d="m 19.116,32.753 c 0,-1.908 -1.547,-3.455 -3.457,-3.455 l -10.373,0 c -1.909,0 -3.456,1.547 -3.456,3.455 l 0,10.375 c 0,1.909 1.547,3.456 3.456,3.456 l 10.374,0 c 1.909,0 3.457,-1.547 3.457,-3.456 l 0,-10.375 z m -3.104,10.37 c 0,0.226 -0.168,0.427 -0.395,0.427 l -10.346,0 c -0.227,0 -0.407,-0.201 -0.407,-0.427 l 0,-10.348 c 0,-0.226 0.18,-0.444 0.407,-0.444 l 10.347,0 c 0.226,0 0.395,0.218 0.395,0.444 l 0,10.348 z"
       id="path9"
       inkscape:connector-curvature="0" /><rect
       x="7.1220002"
       y="34.589001"
       width="6.632"
       height="6.7030001"
       id="rect11" /><path
       d="m 45.998,5.731 c 0,-1.909 -1.547,-3.456 -3.456,-3.456 l -10.374,0 c -1.909,0 -3.457,1.547 -3.457,3.456 l 0,10.374 c 0,1.909 1.547,3.456 3.457,3.456 l 10.374,0 c 1.909,0 3.456,-1.547 3.456,-3.456 l 0,-10.374 z m -3.104,10.315 c 0,0.227 -0.184,0.41 -0.411,0.41 l -10.327,0 c -0.227,0 -0.41,-0.184 -0.41,-0.41 l 0,-10.327 c 0,-0.227 0.184,-0.41 0.41,-0.41 l 10.327,0 c 0.227,0 0.411,0.184 0.411,0.41 l 0,10.327 z"
       id="path13"
       inkscape:connector-curvature="0" /><rect
       x="34.002998"
       y="7.566"
       width="6.7030001"
       height="6.632"
       id="rect15" /><path
       d="m 5.767,21.536 c -0.499,0 -0.903,0.404 -0.903,0.903 l 0,2.287 c 0,0.499 0.404,0.903 0.903,0.903 l 2.131,0 0,0.084 c 0,0.499 0.404,0.903 0.903,0.903 l 5.165,0 0,0.085 c 0,0.499 0.404,0.903 0.903,0.903 l 2.287,0 c 0.499,0 0.903,-0.404 0.903,-0.903 l 0,-2.216 c 0,-0.499 -0.404,-0.903 -0.903,-0.903 l -1.143,0 0,-1.144 c 0,-0.499 -0.404,-0.903 -0.903,-0.903 l -1.23,0 c -0.499,0 -0.903,0.404 -0.903,0.903 l 0,1.144 -4.02,0 0,-1.144 c 0,-0.499 -0.404,-0.903 -0.903,-0.903 l -2.287,0 z"
       id="path17"
       inkscape:connector-curvature="0" /><path
       d="m 22.573,17.106 c 0,0.499 0.404,0.903 0.903,0.903 l 3.274,0 c 0.499,0 0.903,-0.404 0.903,-0.903 l 0,-2.287 c 0,-0.499 -0.404,-0.903 -0.903,-0.903 l -1.143,0 0,-7.056 0.155,0 c 0.499,0 0.903,-0.404 0.903,-0.903 l 0,-1.227 c 0,-0.499 -0.404,-0.903 -0.903,-0.903 l -4.332,0 c -0.499,0 -0.903,0.404 -0.903,0.903 l 0,1.228 c 0,0.499 0.404,0.903 0.903,0.903 l 1.143,0 0,3.246 -1.143,0 c -0.499,0 -0.903,0.404 -0.903,0.903 l 0,0.17 c 0,0.499 0.404,0.903 0.903,0.903 l 1.143,0 0,5.023 z"
       id="path19"
       inkscape:connector-curvature="0" /><path
       d="m 25.184,20.393 c 0,-0.499 -0.404,-0.903 -0.903,-0.903 l -2.287,0 c -0.499,0 -0.903,0.404 -0.903,0.903 l 0,2.287 c 0,0.499 0.404,0.903 0.903,0.903 l 2.287,0 c 0.499,0 0.903,-0.404 0.903,-0.903 l 0,-2.287 z"
       id="path21"
       inkscape:connector-curvature="0" /><path
       d="m 41.412,30.709 -1.143,0 c -0.499,0 -0.903,0.404 -0.903,0.903 l 0,4.262 c 0,0.499 0.404,0.903 0.903,0.903 l 4.333,0 c 0.499,0 0.903,-0.404 0.903,-0.903 l 0,-13.435 c 0,-0.499 -0.404,-0.903 -0.903,-0.903 l -2.287,0 c -0.499,0 -0.903,0.404 -0.903,0.903 l 0,8.27 z"
       id="path23"
       inkscape:connector-curvature="0" /><path
       d="m 31.182,27.393 0.155,0 c 0.499,0 0.903,-0.404 0.903,-0.903 l 0,-2.216 c 0,-0.499 -0.404,-0.903 -0.903,-0.903 l -2.287,0 c -0.499,0 -0.903,0.404 -0.903,0.903 l 0,1.144 -4.177,0 c -0.499,0 -0.903,0.404 -0.903,0.903 l 0,5.25 c 0,0.499 0.404,0.903 0.903,0.903 l 6.309,0 c 0.499,0 0.903,-0.404 0.903,-0.903 l 0,-4.178 z"
       id="path25"
       inkscape:connector-curvature="0" /><path
       d="m 39.366,22.595 0,-1.144 c 0,-0.499 -0.404,-0.903 -0.903,-0.903 l -0.24,0 c -0.499,0 -0.903,0.404 -0.903,0.903 l 0,1.144 -2.131,0 c -0.499,0 -0.903,0.404 -0.903,0.903 l 0,3.204 c 0,0.499 0.404,0.903 0.903,0.903 l 3.274,0 c 0.499,0 0.903,-0.404 0.903,-0.903 l 0,-4.107 z"
       id="path27"
       inkscape:connector-curvature="0" /><path
       d="m 33.298,33.742 -2.131,0 c -0.499,0 -0.903,0.404 -0.903,0.903 l 0,1.229 c 0,0.499 0.404,0.903 0.903,0.903 l 2.131,0 0,7.907 c 0,0.499 0.404,0.903 0.903,0.903 l 2.216,0 c 0.499,0 0.903,-0.404 0.903,-0.903 l 0,-14.13 c 0,-0.499 -0.404,-0.903 -0.903,-0.903 l -2.216,0 c -0.499,0 -0.903,0.404 -0.903,0.903 l 0,3.188 z"
       id="path29"
       inkscape:connector-curvature="0" /><path
       d="m 23.138,44.683 c 0,0.499 0.404,0.903 0.903,0.903 l 3.274,0 c 0.499,0 0.903,-0.404 0.903,-0.903 l 0,-9.05 c 0,-0.499 -0.404,-0.903 -0.903,-0.903 l -3.274,0 c -0.499,0 -0.903,0.404 -0.903,0.903 l 0,9.05 z"
       id="path31"
       inkscape:connector-curvature="0" /><path
       d="m 38.66,44.683 c 0,0.499 0.404,0.903 0.903,0.903 l 2.993,0 c 0.499,0 0.903,-0.404 0.903,-0.903 l 0,-2.216 c 0,-0.499 -0.404,-0.903 -0.903,-0.903 l -2.993,0 c -0.499,0 -0.903,0.404 -0.903,0.903 l 0,2.216 z"
       id="path33"
       inkscape:connector-curvature="0" /></g></svg>