<?xml version="1.0" encoding="UTF-8" standalone="no"?>
<!-- Generator: Adobe Illustrator 17.0.0, SVG Export Plug-In . SVG Version: 6.00 Build 0)  -->

<svg
   xmlns:dc="http://purl.org/dc/elements/1.1/"
   xmlns:cc="http://creativecommons.org/ns#"
   xmlns:rdf="http://www.w3.org/1999/02/22-rdf-syntax-ns#"
   xmlns="http://www.w3.org/2000/svg"
   xmlns:sodipodi="http://sodipodi.sourceforge.net/DTD/sodipodi-0.dtd"
   xmlns:inkscape="http://www.inkscape.org/namespaces/inkscape"
   version="1.1"
   id="Layer_1"
   x="0px"
   y="0px"
   width="100px"
   height="100px"
   viewBox="0 0 100 100"
   enable-background="new 0 0 100 100"
   xml:space="preserve"
   inkscape:version="0.48.4 r9939"
   sodipodi:docname="hand icon.svg"><metadata
     id="metadata21"><rdf:RDF><cc:Work
         rdf:about=""><dc:format>image/svg+xml</dc:format><dc:type
           rdf:resource="http://purl.org/dc/dcmitype/StillImage" /><dc:title /></cc:Work></rdf:RDF></metadata><defs
     id="defs19"><inkscape:perspective
       sodipodi:type="inkscape:persp3d"
       inkscape:vp_x="106.61676 : 31.662055 : 0"
       inkscape:vp_y="155.21944 : 987.87999 : 0"
       inkscape:vp_z="349.03778 : -2.3904604 : 1"
       inkscape:persp3d-origin="57.88891 : -4.4515339 : 1"
       id="perspective3974" /><inkscape:path-effect
       effect="skeletal"
       id="path-effect3849"
       is_visible="true"
       pattern="M 0,0 0,10 10,5 z"
       copytype="single_stretched"
       prop_scale="1"
       scale_y_rel="false"
       spacing="0"
       normal_offset="0"
       tang_offset="0"
       prop_units="false"
       vertical_pattern="false"
       fuse_tolerance="0" /></defs><sodipodi:namedview
     pagecolor="#ffffff"
     bordercolor="#666666"
     borderopacity="1"
     objecttolerance="10"
     gridtolerance="10"
     guidetolerance="10"
     inkscape:pageopacity="0"
     inkscape:pageshadow="2"
     inkscape:window-width="1680"
     inkscape:window-height="995"
     id="namedview17"
     showgrid="false"
     showguides="true"
     inkscape:guide-bbox="true"
     inkscape:object-nodes="true"
     inkscape:snap-global="false"
     inkscape:zoom="1.668772"
     inkscape:cx="-35.578576"
     inkscape:cy="85.17376"
     inkscape:window-x="-2"
     inkscape:window-y="-3"
     inkscape:window-maximized="1"
     inkscape:current-layer="Layer_1" /><path
     style="fill:#0e232e;fill-opacity:1;fill-rule:nonzero;stroke:none"
     d="m 17.358629,-325.15934 17.91242,-5.59361 9.68762,-0.6351 0.87099,-0.22877 -0.49905,-0.46516 -8.13243,0.35689 6.65443,-3.52128 43.54056,3.92717 0.719,22.92089 -4.22068,-0.67484 -9.23595,6.25923 -12.03382,5.44294 -12.43577,7.88582 -3.41076,2.85347 -4.04778,1.20925 -7.46462,5.19094 -5.25161,-1.23818 1.2886,-6.27468 6.18085,-5.71998 11.03029,-6.38325 -0.65041,-11.42481 -5.20205,-5.46737 -5.53508,-4.67827 -19.59771,3.61532 c 0,0 -6.92877,3.65018 -7.25911,3.95409 -0.3303395,0.3039 -6.3993995,4.41675 -6.3993995,4.41675 -2.42143,2.53923 -5.71725,0.64679 -4.18744001,-1.75319 L 17.358629,-325.15934 z m 0.0977,8.13137 19.16992,-3.49866 4.10036,3.46857 -11.83655,-0.36658 -0.89287,0.47343 -10.41473,2.78962 -8.4523595,6.72456 -3.0239,1.42733 -2.46955,0.28494 -2.71307001,-1.72878 2.09972001,-0.10934 7.6106295,-5.3739 6.82241,-4.09118 z m 0.18741,3.45363 8.71726,-2.51149 -6.22023,3.2977 -8.04296,5.50596 -1.98988,-0.23495 7.53581,-6.05722 z m 13.42694,-2.81416 7.06291,0.006 -1.95795,2.55344 -1.38832,6.32899 c -2.18103,4.10307 -4.87037,4.77125 -6.34466,2.21472 l 0.79498,-5.1395 1.83304,-5.96354 z"
     id="path3839"
     inkscape:connector-curvature="0" /><path
     style="fill:#666666;fill-opacity:1;fill-rule:nonzero;stroke:none"
     d="m 41.008474,-238.99153 -16.28125,-1.5 -19.5312479,13.15625 c -0.61683,0.41574 -1.30947,0.63096 -2,0.71875 1.29239,1.74894 3.70949,2.1966 5.53125,0.96875 l 19.6874979,-13.25 16.679641,1.1875 c -1.343859,-0.5518 -1.877672,-0.96224 -4.085891,-1.28125 z m 9.749995,20.5 -18.375,10.8125 c -1.945336,1.14546 -2.582956,3.64842 -1.4375,5.59375 1.145457,1.94534 3.617164,2.58296 5.5625,1.4375 l 24.625,-14.5 31.656253,-18.53125 -2.3125,-16.53125 -0.0625,0 0.0312,-0.0625 -44.250003,-5.5625 5e-5,0 -6.375,3.34375 7.78125,0.48642 c 1.243844,0.0777 0.927376,1.10784 0.375,1.06846 l -20.5625,-1.05488 c -1.000734,0.17215 -2.391415,0.41699 -3.4375,1 l -23.6875029,15.96875 c -1.87202,1.26173 -2.35547,3.78424 -1.09375,5.65625 1.26173,1.87202 3.78423,2.35548 5.65625,1.09375 l 19.6875029,-13.25 c 0,0 13.216819,1.02327 16.6875,1.53125 4.599831,0.67326 9.73572,3.46303 11.619554,7.71307 1.883519,4.24934 2.111686,8.85181 -2.088304,13.78693 z m -21.906245,-19.53125 -19.5312479,13.15625 c -0.11142,0.0751 -0.22849,0.12343 -0.34375,0.1875 1.2861699,0.68374 2.8898499,0.65586 4.1874999,-0.21875 l 16.843748,-11.6875 6.28125,-0.53125 0,-0.21875 z m 3.8125,2.09375 -2.84375,8.90625 c -0.495385,1.56663 0.371942,3.23637 1.9375,3.71875 1.565559,0.48239 3.223364,-0.40212 3.71875,-1.96875 l 3.1875,-10.0625 z"
     id="path3872"
     inkscape:connector-curvature="0"
     sodipodi:nodetypes="ccccccccccssccccccccsccccsccsacccccccccccsccc" /><path
     sodipodi:nodetypes="ccccccccccssccccccccccsccccsccsacccccccccccsccc"
     inkscape:connector-curvature="0"
     id="path3905"
     d="m 50.425845,-146.87696 -16.28125,-1.5 -19.531249,13.15625 c -0.61683,0.41573 -1.309468,0.63095 -2,0.71875 1.292393,1.74893 3.709496,2.19659 5.53125,0.96875 l 19.687499,-13.25 16.679641,1.1875 c -1.343859,-0.55181 -1.877672,-0.96225 -4.085891,-1.28125 z m 9.749995,20.5 -18.375,10.8125 c -1.945336,1.14545 -2.582956,3.64841 -1.4375,5.59375 1.145457,1.94533 3.617164,2.58295 5.5625,1.4375 l 24.625,-14.5 16.594413,-10.46093 1.378602,4.11449 3.564805,-1.04963 -10.639501,-39.57235 -4.107391,0.89886 0.268769,1.18739 -21.997247,4.19467 5e-5,0 -6.375,3.34375 7.78125,0.48641 c 1.243844,0.0777 0.927376,1.10784 0.375,1.06846 l -20.5625,-1.05487 c -1.000734,0.17214 -2.391415,0.41698 -3.4375,1 l -23.6874988,15.96875 c -1.8720189,1.26172 -2.3554729,3.78423 -1.09375,5.65625 1.261724,1.87201 3.7842308,2.35547 5.6562498,1.09375 l 19.687499,-13.25 c 0,0 13.216819,1.02326 16.6875,1.53125 4.599831,0.67325 9.73572,3.46302 11.619554,7.71306 1.883519,4.24934 2.111686,8.85181 -2.088304,13.78694 z m -21.906245,-19.53125 -19.53125,13.15625 c -0.111418,0.0751 -0.228492,0.12342 -0.343749,0.1875 1.286173,0.68373 2.889849,0.65585 4.187499,-0.21875 l 16.84375,-11.6875 6.28125,-0.53125 0,-0.21875 z m 3.8125,2.09375 -2.84375,8.90625 c -0.495385,1.56662 0.371942,3.23636 1.9375,3.71875 1.565559,0.48238 3.223364,-0.40213 3.71875,-1.96875 l 3.1875,-10.0625 z"
     style="fill:#666666;fill-opacity:1;fill-rule:nonzero;stroke:none" /><path
     style="fill:#666666;fill-opacity:1;fill-rule:nonzero;stroke:none"
     d="m 51.781217,-57.989055 -17.260531,-1.590221 -20.70601,13.947568 c -0.65393,0.440735 -1.388229,0.668901 -2.120295,0.761982 1.370128,1.854124 3.932613,2.32871 5.863942,1.027018 l 20.871658,-14.046958 17.682884,1.258926 c -1.424689,-0.585 -1.99061,-1.020128 -4.331648,-1.358315 z m 10.336435,21.733029 -19.480215,11.462848 c -2.062344,1.214346 -2.738315,3.867854 -1.523962,5.930202 1.214353,2.062337 3.834728,2.738308 5.897072,1.523962 0,0 17.597691,-9.932676 26.106139,-15.372143 2.479952,-1.585438 4.138988,-2.331517 8.292921,-4.311035 17.113878,-8.155456 16.579392,-34.800631 -7.112496,-39.040974 -4.871424,-0.871881 -10.640151,-0.182559 -17.016436,0.217248 -1.159813,0.07273 -4.627056,2.298097 -6.758389,3.544868 l 8.249275,0.515667 c 1.318659,0.08237 0.983156,1.174474 0.397555,1.132726 l -21.799288,-1.118319 c -1.060926,0.182495 -2.535253,0.442061 -3.644258,1.060148 L 8.6133213,-53.781593 c -1.9846163,1.337609 -2.497149,4.011843 -1.1595363,5.996461 1.3376135,1.984607 4.011844,2.497145 5.99646,1.159536 l 20.871658,-14.046958 c 0,0 14.011781,1.084807 17.691216,1.623351 4.876501,0.713745 10.321302,3.671313 12.318444,8.176984 1.996808,4.504928 2.238699,9.384226 -2.213911,14.616193 z M 38.893796,-56.962037 18.187785,-43.014468 c -0.11812,0.07962 -0.242236,0.130843 -0.364425,0.198778 1.363533,0.724855 3.063667,0.695298 4.439368,-0.231907 l 17.856864,-12.390478 6.659052,-0.563203 0,-0.231907 z m 4.041813,2.219684 -3.014795,9.441942 c -0.525182,1.660849 0.394313,3.431019 2.054036,3.942424 1.659724,0.511395 3.417242,-0.426317 3.942425,-2.087166 l 3.37922,-10.667736 z"
     id="path3968"
     inkscape:connector-curvature="0"
     sodipodi:nodetypes="ccccccccccsssssscsccccsccsacccccccccccsccc" /><path
     style="fill:#666666;fill-opacity:1;fill-rule:nonzero;stroke:none"
     d="m 27.416089,143.76439 c -0.17673,0 -0.35326,0.0296 -0.48868,0.0997 l -14.60065,7.55962 c -0.27084,0.14018 -0.27084,0.35848 0,0.49866 l 14.60065,7.55962 c 0.27084,0.14018 0.70652,0.14018 0.97736,0 l 14.59067,-7.55962 c 0.27084,-0.14018 0.27084,-0.35848 0,-0.49866 l -14.59067,-7.55962 c -0.13542,-0.0701 -0.31195,-0.0997 -0.48868,-0.0997 z m 15.66776,9.19521 c -0.0686,0.003 -0.15002,0.0187 -0.22938,0.0598 l -14.34134,7.43995 c -0.31744,0.16459 -0.57844,0.58987 -0.57844,0.94744 l 0,18.78935 c 0,0.35758 0.261,0.51366 0.57844,0.34906 l 14.34134,-7.43994 c 0.31744,-0.1646 0.57844,-0.58987 0.57844,-0.94745 l 0,-18.78935 c 0,-0.26818 -0.14326,-0.41788 -0.34906,-0.4089 z m -31.33553,0.0898 c -0.20579,-0.009 -0.34906,0.15069 -0.34906,0.41887 l 0,18.78935 c 0,0.35758 0.25103,0.77288 0.56847,0.93748 l 14.35132,7.43994 c 0.31743,0.1646 0.56846,0.009 0.56846,-0.34906 l 0,-18.78935 c 0,-0.35758 -0.25103,-0.77287 -0.56846,-0.93747 l -14.35132,-7.43995 c -0.0794,-0.0412 -0.15081,-0.0668 -0.21941,-0.0698 z"
     id="rect3990"
     inkscape:connector-curvature="0" /><path
     style="fill:#000000;fill-opacity:1;fill-rule:nonzero;stroke:none"
     d="m 82.996846,22.68188 c -0.2495,-0.005 -0.50305,0.0574 -0.75,0.15625 l -5.9375,2.375 c -0.64804,0.25946 -1.08132,0.82944 -1.1875,1.46875 -0.88773,-0.24922 -1.81238,-0.48284 -2.78125,-0.65625 -4.62621,-0.82799 -10.10093,-0.16093 -16.156253,0.21875 -1.101432,0.0691 -2.194702,0.59724 -4.21875,1.78125 l 7.84375,0.5 c 1.554706,0.0972 1.406149,2.79012 -1.8125,2.625 l -20.71875,-1.0625 c -1.007522,0.17331 -2.415569,0.44428 -3.46875,1.03125 L 9.9655927,47.18188 c -1.884717,1.27028 -2.364032,3.80278 -1.09375,5.6875 1.2702823,1.88471 3.8027833,2.39528 5.6875003,1.125 l 19.84375,-13.34375 c 0,0 13.287027,1.01982 16.78125,1.53125 4.631033,0.67782 9.822138,3.50238 11.718753,7.78125 1.89629,4.27816 2.10348,8.90639 -2.125003,13.875 l -18.5,10.875 c -1.958532,1.15322 -2.590727,3.66646 -1.4375,5.625 1.153226,1.95853 3.635218,2.62197 5.59375,1.46875 0,0 16.732343,-9.45934 24.812503,-14.625 2.35512,-1.50563 3.93016,-2.21387 7.875,-4.09375 3.33876,-1.59106 5.93371,-3.91983 7.8125,-6.65625 0.52633,0.4741 1.29561,0.62578 2,0.34375 l 5.96875,-2.375 c 0.9878,-0.3955 1.458,-1.5122 1.0625,-2.5 l -11.21875,-28 c -0.29663,-0.74085 -1.00153,-1.20519 -1.75,-1.21875 z M 36.153093,44.08813 19.996843,54.93188 c -0.621013,0.41855 -1.336034,0.63036 -2.03125,0.71875 1.30116,1.76079 3.759638,2.20492 5.59375,0.96875 l 16.3125,-10.90625 1.90625,-0.9375 c -1.352974,-0.55555 -0.308053,-0.33509 -2.53125,-0.65625 l -3.09375,-0.0312 z m 7.96875,0.96875 -4.40625,10.1875 c -0.498746,1.57725 0.361322,3.26434 1.9375,3.75 1.576178,0.48565 3.251253,-0.42275 3.75,-2 l 4.78125,-11.34375 -6.0625,-0.59375 z"
     id="path4106"
     inkscape:connector-curvature="0" /></svg>